<svg xmlns="http://www.w3.org/2000/svg" width="27.948" height="15.139" viewBox="0 0 27.948 15.139">
  <path id="ic_group_add_24px" d="M9.316,10.823H5.823V7.329H3.494v3.494H0v2.329H3.494v3.494H5.823V13.152H9.316Zm11.645,1.165A3.494,3.494,0,1,0,19.9,5.163a5.746,5.746,0,0,1,1.048,3.33,5.859,5.859,0,0,1-1.048,3.33A3.482,3.482,0,0,0,20.961,11.987Zm-5.823,0a3.494,3.494,0,1,0-3.494-3.494A3.479,3.479,0,0,0,15.139,11.987ZM22.848,14.5a4.309,4.309,0,0,1,1.607,3.307v2.329h3.494V17.81C27.948,16.016,25.188,14.91,22.848,14.5Zm-7.709-.186c-2.329,0-6.987,1.165-6.987,3.494v2.329H22.126V17.81C22.126,15.481,17.468,14.316,15.139,14.316Z" transform="translate(0 -5)" fill="#5b5b5b" opacity="0.5"/>
</svg>
