<svg xmlns="http://www.w3.org/2000/svg" width="36.963" height="38" viewBox="0 0 36.963 38">
  <path id="ic_settings_24px" d="M34.873,22.862A14.807,14.807,0,0,0,35.006,21a14.807,14.807,0,0,0-.133-1.862L38.882,16a.959.959,0,0,0,.228-1.216l-3.8-6.574A.955.955,0,0,0,34.151,7.8L29.42,9.7a13.882,13.882,0,0,0-3.211-1.862L25.487,2.8a.926.926,0,0,0-.931-.8h-7.6a.926.926,0,0,0-.931.8L15.3,7.833A14.6,14.6,0,0,0,12.092,9.7L7.361,7.8A.927.927,0,0,0,6.2,8.213L2.4,14.787A.937.937,0,0,0,2.63,16l4.009,3.135A15.068,15.068,0,0,0,6.506,21a15.068,15.068,0,0,0,.133,1.862L2.63,26A.959.959,0,0,0,2.4,27.213l3.8,6.574a.955.955,0,0,0,1.159.418l4.731-1.9A13.882,13.882,0,0,0,15.3,34.167l.722,5.035a.926.926,0,0,0,.931.8h7.6a.926.926,0,0,0,.931-.8l.722-5.035a14.6,14.6,0,0,0,3.211-1.862l4.731,1.9a.927.927,0,0,0,1.159-.418l3.8-6.574A.959.959,0,0,0,38.882,26ZM20.756,27.65A6.65,6.65,0,1,1,27.406,21,6.657,6.657,0,0,1,20.756,27.65Z" transform="translate(-2.271 -2)" fill="#fff"/>
</svg>
