<svg xmlns="http://www.w3.org/2000/svg" width="23.543" height="23.543" viewBox="0 0 23.543 23.543">
  <path id="ic_shopping_cart_24px" d="M8.063,20.835a2.354,2.354,0,1,0,2.354,2.354A2.351,2.351,0,0,0,8.063,20.835ZM1,2V4.354H3.354l4.238,8.935L6,16.173a2.276,2.276,0,0,0-.294,1.13,2.361,2.361,0,0,0,2.354,2.354H22.189V17.3H8.557a.291.291,0,0,1-.294-.294l.035-.141,1.059-1.919h8.77a2.343,2.343,0,0,0,2.06-1.212L24.4,6.1a1.15,1.15,0,0,0,.141-.565,1.181,1.181,0,0,0-1.177-1.177H5.956L4.849,2H1ZM19.835,20.835a2.354,2.354,0,1,0,2.354,2.354A2.351,2.351,0,0,0,19.835,20.835Z" transform="translate(-1 -2)" fill="#5b5b5b" opacity="0.5"/>
</svg>
