<svg xmlns="http://www.w3.org/2000/svg" width="53.902" height="61.705" viewBox="0 0 53.902 61.705">
  <path id="patientregistration" d="M47.919,48.279H11.984V42.109H47.919Zm0-12.341H11.984V29.768H47.919Zm0-12.341H11.984V17.426H47.919ZM3,63.706l4.492-4.628,4.492,4.628,4.492-4.628,4.492,4.628,4.492-4.628,4.492,4.628,4.492-4.628,4.492,4.628,4.492-4.628,4.492,4.628,4.492-4.628L56.9,63.706V2L52.41,6.628,47.919,2,43.427,6.628,38.935,2,34.443,6.628,29.951,2,25.459,6.628,20.967,2,16.476,6.628,11.984,2,7.492,6.628,3,2Z" transform="translate(-3 -2)" fill="#5b5b5b" opacity="0.2"/>
</svg>
