<svg xmlns="http://www.w3.org/2000/svg" width="57.636" height="64.039" viewBox="0 0 57.636 64.039">
  <path id="testandscan" d="M54.232,7.4H40.847a9.568,9.568,0,0,0-18.059,0H9.4a6.423,6.423,0,0,0-6.4,6.4V58.636a6.423,6.423,0,0,0,6.4,6.4H54.232a6.423,6.423,0,0,0,6.4-6.4V13.808A6.423,6.423,0,0,0,54.232,7.4Zm-22.414,0a3.2,3.2,0,1,1-3.2,3.2A3.211,3.211,0,0,1,31.818,7.4Zm6.4,44.828H15.808v-6.4H38.222Zm9.606-12.808H15.808v-6.4h32.02Zm0-12.808H15.808v-6.4h32.02Z" transform="translate(-3 -1)" fill="#0c87e2" opacity="0.5"/>
</svg>
